<?xml version="1.0" encoding="utf-8"?>
<!-- Generator: Adobe Illustrator 17.0.0, SVG Export Plug-In . SVG Version: 6.00 Build 0)  -->
<!DOCTYPE svg PUBLIC "-//W3C//DTD SVG 1.1//EN" "http://www.w3.org/Graphics/SVG/1.1/DTD/svg11.dtd">
<svg version="1.1" id="Calque_1" xmlns="http://www.w3.org/2000/svg" xmlns:xlink="http://www.w3.org/1999/xlink" x="0px" y="0px"
	 width="18px" height="18px" viewBox="0 0 18 18" enable-background="new 0 0 18 18" xml:space="preserve">
<g>
	<g>
		<path fill="#222221" d="M3.02,7.48c-0.44,0.1-0.848,0.261-1.209,0.488v5.728c0.36,0.226,0.769,0.388,1.209,0.488V7.48z"/>
		<path fill="#222221" d="M1.327,8.323c-0.677,0.608-1.096,1.474-1.096,2.509c0,1.035,0.419,1.901,1.096,2.509V8.323z"/>
		<path fill="#222221" d="M14.008,7.36c-0.014,0-0.027,0.002-0.04,0.002C13.669,4.882,11.561,2.958,9,2.958
			c-1.525,0-2.887,0.686-3.804,1.762v9.584h8.813c2.077,0,3.76-1.396,3.76-3.472C17.768,8.756,16.085,7.36,14.008,7.36z"/>
		<path fill="#222221" d="M4.712,5.392c-0.354,0.589-0.595,1.255-0.681,1.97c-0.014,0-0.027-0.002-0.04-0.002
			c-0.167,0-0.327,0.024-0.488,0.041v6.862c0.161,0.018,0.321,0.041,0.488,0.041h0.721V5.392z"/>
	</g>
</g>
</svg>
