<?xml version="1.0" encoding="utf-8"?>
<!-- Generator: Adobe Illustrator 17.0.0, SVG Export Plug-In . SVG Version: 6.00 Build 0)  -->
<!DOCTYPE svg PUBLIC "-//W3C//DTD SVG 1.1//EN" "http://www.w3.org/Graphics/SVG/1.1/DTD/svg11.dtd">
<svg version="1.1" id="Calque_1" xmlns="http://www.w3.org/2000/svg" xmlns:xlink="http://www.w3.org/1999/xlink" x="0px" y="0px"
	 width="18px" height="18px" viewBox="0 0 18 18" enable-background="new 0 0 18 18" xml:space="preserve">
<path d="M13.207,12.68c0-0.25-0.117-0.449-0.352-0.598c-1.508-0.898-3.254-1.348-5.238-1.348c-1.039,0-2.16,0.133-3.363,0.398
	c-0.328,0.07-0.492,0.273-0.492,0.609c0,0.156,0.053,0.291,0.158,0.404c0.105,0.113,0.244,0.17,0.416,0.17
	c0.039,0,0.184-0.031,0.434-0.094c1.031-0.211,1.98-0.316,2.848-0.316c1.766,0,3.316,0.402,4.652,1.207
	c0.148,0.086,0.277,0.129,0.387,0.129c0.148,0,0.277-0.053,0.387-0.158C13.152,12.979,13.207,12.844,13.207,12.68z M14.332,10.16
	c0-0.312-0.137-0.551-0.41-0.715C12.07,8.344,9.93,7.793,7.5,7.793c-1.195,0-2.379,0.164-3.551,0.492
	c-0.375,0.102-0.562,0.352-0.562,0.75c0,0.195,0.068,0.361,0.205,0.498C3.729,9.67,3.895,9.738,4.09,9.738
	c0.055,0,0.199-0.031,0.434-0.094c0.953-0.258,1.934-0.387,2.941-0.387c2.18,0,4.086,0.484,5.719,1.453
	c0.187,0.102,0.336,0.152,0.445,0.152c0.195,0,0.361-0.068,0.498-0.205C14.264,10.521,14.332,10.355,14.332,10.16z M15.598,7.254
	c0-0.367-0.156-0.641-0.469-0.82C14.145,5.863,13,5.432,11.695,5.139c-1.305-0.293-2.645-0.439-4.02-0.439
	c-1.594,0-3.016,0.184-4.266,0.551C3.23,5.305,3.08,5.404,2.959,5.549C2.838,5.693,2.777,5.883,2.777,6.117
	c0,0.242,0.08,0.445,0.24,0.609s0.361,0.246,0.604,0.246c0.086,0,0.242-0.031,0.469-0.094C5.129,6.59,6.328,6.445,7.688,6.445
	c1.242,0,2.451,0.133,3.627,0.398c1.176,0.266,2.166,0.637,2.971,1.113c0.164,0.094,0.32,0.141,0.469,0.141
	c0.227,0,0.424-0.08,0.592-0.24C15.514,7.697,15.598,7.496,15.598,7.254z M18,9c0,1.633-0.402,3.139-1.207,4.518
	s-1.896,2.471-3.275,3.275C12.139,17.598,10.633,18,9,18s-3.139-0.402-4.518-1.207c-1.379-0.805-2.471-1.896-3.275-3.275
	C0.402,12.139,0,10.633,0,9c0-1.633,0.402-3.139,1.207-4.518c0.805-1.379,1.896-2.471,3.275-3.275C5.861,0.402,7.367,0,9,0
	s3.139,0.402,4.518,1.207c1.379,0.805,2.471,1.896,3.275,3.275C17.598,5.861,18,7.367,18,9z"/>
</svg>
