<?xml version="1.0" encoding="utf-8"?>
<!-- Generator: Adobe Illustrator 17.0.0, SVG Export Plug-In . SVG Version: 6.00 Build 0)  -->
<!DOCTYPE svg PUBLIC "-//W3C//DTD SVG 1.1//EN" "http://www.w3.org/Graphics/SVG/1.1/DTD/svg11.dtd">
<svg version="1.1" id="Calque_1" xmlns="http://www.w3.org/2000/svg" xmlns:xlink="http://www.w3.org/1999/xlink" x="0px" y="0px"
	 width="18px" height="18px" viewBox="0 0 18 18" enable-background="new 0 0 18 18" xml:space="preserve">
<path d="M12.857,9c0-0.248-0.1-0.429-0.301-0.542L7.413,5.243C7.205,5.109,6.988,5.103,6.76,5.223
	C6.539,5.344,6.429,5.531,6.429,5.786v6.429c0,0.254,0.11,0.442,0.331,0.562c0.107,0.054,0.211,0.08,0.311,0.08
	c0.134,0,0.248-0.033,0.342-0.1l5.143-3.214C12.757,9.429,12.857,9.248,12.857,9z M18,9c0,0.643-0.003,1.145-0.01,1.507
	c-0.007,0.362-0.035,0.819-0.085,1.371c-0.05,0.552-0.126,1.046-0.226,1.482c-0.107,0.489-0.338,0.901-0.693,1.235
	c-0.355,0.335-0.77,0.529-1.246,0.583c-1.487,0.167-3.733,0.251-6.74,0.251s-5.253-0.084-6.74-0.251
	c-0.475-0.054-0.892-0.248-1.251-0.583c-0.358-0.335-0.591-0.747-0.698-1.235c-0.094-0.435-0.166-0.929-0.216-1.482
	c-0.05-0.552-0.079-1.009-0.085-1.371C0.003,10.145,0,9.643,0,9c0-0.643,0.003-1.145,0.01-1.507
	c0.007-0.362,0.035-0.819,0.085-1.371c0.05-0.552,0.126-1.046,0.226-1.482C0.429,4.152,0.66,3.74,1.015,3.405
	C1.369,3.07,1.785,2.876,2.26,2.823C3.747,2.655,5.993,2.571,9,2.571s5.253,0.084,6.74,0.251c0.475,0.054,0.892,0.248,1.251,0.583
	c0.358,0.335,0.591,0.747,0.698,1.235c0.094,0.435,0.166,0.929,0.216,1.482c0.05,0.552,0.079,1.009,0.085,1.371
	C17.997,7.855,18,8.357,18,9z"/>
</svg>
